HIERARCHY
ROOT Hips
{
  OFFSET 90.7885 88.945 -76.2838
  CHANNELS 6 Xposition Yposition Zposition Zrotation Xrotation Yrotation
  JOINT LeftUpLeg
  {
    OFFSET 8.64259 1.95398 -2.38835
    CHANNELS 3 Zrotation Xrotation Yrotation
    JOINT LeftLeg
    {
      OFFSET 43.7702 0 0
      CHANNELS 3 Zrotation Xrotation Yrotation
      JOINT LeftFoot
      {
        OFFSET 40.6238 0 0
        CHANNELS 3 Zrotation Xrotation Yrotation
        JOINT LeftToeBase
        {
          OFFSET 12.7242 0 0
          CHANNELS 3 Zrotation Xrotation Yrotation
          End Site
          {
            OFFSET 0 0 0
          }
        }
      }
    }
  }
  JOINT RightUpLeg
  {
    OFFSET -8.2249 1.95398 -2.59336
    CHANNELS 3 Zrotation Xrotation Yrotation
    JOINT RightLeg
    {
      OFFSET 43.5653 0 0
      CHANNELS 3 Zrotation Xrotation Yrotation
      JOINT RightFoot
      {
        OFFSET 40.6238 0 0
        CHANNELS 3 Zrotation Xrotation Yrotation
        JOINT RightToeBase
        {
          OFFSET 12.7242 0 0
          CHANNELS 3 Zrotation Xrotation Yrotation
          End Site
          {
            OFFSET 0 0 0
          }
        }
      }
    }
  }
  JOINT Spine
  {
    OFFSET 0.165834 0.87714 6.61349
    CHANNELS 3 Zrotation Xrotation Yrotation
    JOINT Spine1
    {
      OFFSET 7.38963 1.71661e-005 0
      CHANNELS 3 Zrotation Xrotation Yrotation
      JOINT Spine2
      {
        OFFSET 11.9445 1.14441e-005 0
        CHANNELS 3 Zrotation Xrotation Yrotation
        JOINT Spine3
        {
          OFFSET 14.7254 4.19617e-005 0
          CHANNELS 3 Zrotation Xrotation Yrotation
          JOINT Spine4
          {
            OFFSET 10.9679 0 0
            CHANNELS 3 Zrotation Xrotation Yrotation
            JOINT RightShoulder
            {
              OFFSET 2.46616 -1.6653 3.69651
              CHANNELS 3 Zrotation Xrotation Yrotation
              JOINT RightArm
              {
                OFFSET 13.0012 0 0
                CHANNELS 3 Zrotation Xrotation Yrotation
                JOINT RightForeArm
                {
                  OFFSET 28.7848 1.52588e-005 0
                  CHANNELS 3 Zrotation Xrotation Yrotation
                  JOINT RightHand
                  {
                    OFFSET 26.5688 1.52588e-005 0
                    CHANNELS 3 Zrotation Xrotation Yrotation
                    End Site
                    {
                      OFFSET 0 0 0
                    }
                  }
                }
              }
            }
            JOINT LeftShoulder
            {
              OFFSET 2.38034 -1.29275 -3.7523
              CHANNELS 3 Zrotation Xrotation Yrotation
              JOINT LeftArm
              {
                OFFSET 16.3182 6.10352e-005 0
                CHANNELS 3 Zrotation Xrotation Yrotation
                JOINT LeftForeArm
                {
                  OFFSET 27.0901 0 0
                  CHANNELS 3 Zrotation Xrotation Yrotation
                  JOINT LeftHand
                  {
                    OFFSET 24.5451 1.52588e-005 0
                    CHANNELS 3 Zrotation Xrotation Yrotation
                    End Site
                    {
                      OFFSET 0 0 0
                    }
                  }
                }
              }
            }
            JOINT Neck
            {
              OFFSET 5.0226 -0.0266342 0
              CHANNELS 3 Zrotation Xrotation Yrotation
              JOINT Head
              {
                OFFSET 6.69363 2.86102e-005 0
                CHANNELS 3 Zrotation Xrotation Yrotation
                End Site
                {
                  OFFSET 0 0 0
                }
              }
            }
          }
        }
      }
    }
  }
}
MOTION
Frames:	12
Frame Time:	0.0416667
254.848 93.5473 240.45 -91.416 43.1136 -92.2655 -176.145 29.5336 85.9566 -31.6081 16.3644 -4.29885 58.6371 -0.493808 -0.21637 15.0475 -2.6863 5.21274 165.037 -22.0679 83.6118 -78.3932 -6.02496 -0.130605 66.7072 -4.6583 -4.56058 89.5986 -4.60184 6.37032 2.46881 8.16025 -88.6944 10.5053 5.51675 2.1038 -1.15522 5.60397 1.85834 -23.7477 4.6294 3.6667 -3.73502 4.62937 3.6667 91.7643 -21.3078 -106.572 40.15 -14.0037 1.28177 -32.4389 -18.4571 -64.789 -25.6342 -0.869246 -9.72853 -87.6494 -47.7453 81.8457 -8.75058 31.5954 21.447 41.9354 -27.7153 -101.898 6.77837 -0.574137 -10.4076 19.5382 -12.487 -13.4845 -6.50151 -8.03035 1.94796 
245.909 90.8174 232.649 -92.2565 39.2173 -95.7642 -172.548 29.9739 80.5517 -50.1384 20.2587 -4.95596 71.2023 5.10597 2.50313 17.9504 -0.679831 2.55304 163.299 -10.0251 79.7744 -101.164 -3.03055 -0.679534 72.4864 -7.65796 -3.19533 91.7481 -5.18071 2.80271 1.31271 8.38731 -88.1046 10.0391 3.47851 3.4793 -1.63137 3.6282 3.3229 -24.1482 2.27304 4.36271 -4.13551 2.27304 4.3627 92.0249 -24.9861 -104.475 47.6246 -17.9534 9.4779 -29.109 -18.7582 -62.9888 -43.6732 -1.12935 -7.20735 -90.0501 -55.6236 79.8057 5.09935 24.474 -5.75846 40.7985 -26.2437 -103.314 8.83479 -0.2684 -6.25343 22.6263 -12.1808 -17.4186 -6.17545 -6.05393 3.63271 
237.477 88.7413 225.906 -92.5183 35.8761 -100.561 -172.132 23.8511 75.9826 -55.5172 21.3302 -5.44766 79.1787 9.03599 2.42877 22.0247 -0.261143 1.49289 168.659 8.76685 75.7719 -119.673 -20.1868 -1.04524 60.7924 -0.0392234 -15.066 95.9208 -7.1057 -5.25924 0.13352 8.6176 -87.4787 9.57837 1.40325 4.88631 -2.10081 1.61667 4.82004 -24.5621 -0.127986 5.08177 -4.54941 -0.127999 5.08176 94.2989 -22.1813 -100.369 58.4053 -19.0333 20.8581 -25.4114 -20.8832 -56.3762 -44.497 1.28326 -14.1821 -90.683 -53.1419 78.3814 4.54843 16.3673 -35.5223 55.2037 -25.4604 -98.5773 7.12651 0.162512 -2.981 28.3455 -10.9497 -17.8392 -8.56091 -3.73316 2.20881 
228.739 88.199 217.899 -90.8844 36.8145 -99.3999 -172.173 16.4594 80.7086 -56.609 19.0304 -5.1872 87.6748 11.4594 -2.8138 22.6276 -0.33304 1.47937 174.837 32.6946 80.6377 -121.669 -47.1453 -0.59863 26.6433 30.6369 -32.4919 103.446 -11.4856 -19.0846 -0.729616 8.41481 -87.8678 10.0311 -0.484133 4.27298 -1.64676 -0.295786 4.2901 -24.1332 -1.74495 3.93091 -4.1205 -1.74497 3.93091 96.3529 -18.2524 -96.7279 66.0196 -26.1182 34.7254 -33.4803 -20.8232 -60.477 -39.0573 0.123983 -12.9693 -91.0093 -43.7206 75.6571 -3.57371 6.50603 -51.8525 53.0304 -24.3864 -101.344 5.53394 -0.194867 -7.33681 32.2204 -6.37278 -15.1813 -12.4113 0.190561 2.07366 
218.905 90.0844 208.437 -89.3659 38.999 -95.4552 -172.113 3.68379 87.9748 -45.6579 20.5013 -5.03933 89.5779 12.7846 -1.0744 23.8138 7.01788 -8.48354 178.217 41.4793 88.4616 -115.815 -40.4829 -0.862363 45.383 19.1329 -52.1497 68.8895 -3.19351 -9.50416 -1.70421 8.15322 -88.7125 10.5972 -2.80226 2.81184 -1.07404 -2.67582 2.93238 -23.6212 -3.51757 1.83948 -3.60856 -3.51756 1.83948 96.2794 -14.9529 -97.9558 69.5261 -29.9215 47.2026 -36.8384 -17.3579 -61.9876 -38.202 0.272648 -13.6869 -87.8022 -33.2184 78.4022 -8.25458 -3.62018 -58.9726 45.4626 -24.2957 -107.925 6.65637 -0.335288 -7.46895 35.9421 0.104355 -12.5593 -16.2167 5.5686 2.52157 
207.97 92.713 198.56 -89.7878 40.7616 -91.189 -172.883 -12.1098 90.5994 -28.2197 20.9464 -2.85159 72.582 6.21592 4.17137 41.7948 5.14119 -12.2901 -177.305 41.5822 90.5237 -102.352 -14.5763 -1.83943 75.7149 -12.2961 -28.9166 23.615 -2.69716 7.71887 -2.42027 8.18111 -89.4931 10.5506 -4.5877 1.42132 -1.11319 -4.52069 1.6222 -23.7139 -4.80235 -0.0262981 -3.70129 -4.80236 -0.0263012 97.0978 -12.1924 -96.546 67.921 -28.8503 52.7844 -37.1706 -19.128 -60.9463 -37.033 0.68452 -15.5762 -84.8521 -19.25 80.6217 -14.5242 -7.09466 -57.919 44.3605 -24.3966 -110.972 8.31896 -0.56575 -9.47853 40.1105 5.33761 -11.8969 -21.1036 10.229 4.41964 
196.963 95.6856 188.188 -86.7044 42.2857 -88.4729 -172.948 -22.0641 94.0778 -14.0942 21.5295 0.727534 55.1633 -1.69096 3.82278 29.3804 2.67611 -5.8284 -176.582 44.0049 94.2873 -79.5415 3.31433 -2.47375 84.6751 -11.9379 -0.453631 14.0736 -2.66296 7.29043 -2.83596 7.92231 -90.6413 11.0299 -5.94279 -0.70017 -0.627372 -5.96785 -0.437007 -23.2577 -5.45681 -2.45896 -3.24509 -5.4568 -2.45895 98.1617 -5.13146 -96.2413 70.9592 -27.8094 57.4208 -35.4226 -19.1213 -58.148 -41.3992 0.858379 -14.8504 -83.6655 -9.50045 80.0877 -17.8875 -8.63858 -52.4181 44.5706 -23.6198 -111.617 8.55133 -0.612559 -9.9723 44.0003 10.2424 -8.8216 -28.713 12.8987 6.24562 
186.344 97.3927 177.884 -82.3975 43.1042 -88.4687 -170.864 -26.0654 97.2898 -12.4938 14.66 0.865064 55.1083 -1.5476 2.79781 20.3912 -0.552206 2.16861 -178.352 43.3532 97.4297 -51.6424 1.87551 -2.22983 78.3797 -9.57492 -0.578595 17.8355 -1.23138 4.38519 -2.9422 7.62485 -91.5243 11.5654 -6.56613 -2.36079 -0.0905124 -6.66365 -2.06844 -22.7106 -5.5529 -4.229 -2.69793 -5.55289 -4.229 98.7755 2.04493 -96.8075 77.005 -24.8738 61.7382 -33.6386 -11.737 -57.2443 -43.7913 2.93712 -18.3562 -83.1079 -2.90031 79.2819 -16.5234 -8.47346 -52.3191 45.3203 -20.7413 -107.672 9.22514 -0.795801 -11.2086 40.4443 13.0848 -9.43837 -28.6164 14.4734 11.4273 
175.961 97.3506 167.569 -83.275 41.7058 -88.8279 -166.839 -32.3366 100.996 -14.8442 8.47638 -0.99979 57.1847 -0.417237 1.68604 23.0066 -0.788202 2.0151 179.792 34.3981 95.7847 -19.8303 -4.98885 -0.967107 67.7993 -6.59281 -2.49906 20.6789 -0.296616 2.23785 -3.21424 7.62133 -91.4773 11.5738 -7.08533 -2.21351 -0.0791658 -7.17579 -1.8981 -22.7213 -6.09202 -4.24639 -2.7087 -6.092 -4.24639 98.9697 0.250935 -95.113 73.509 -22.9482 60.7833 -38.9815 -8.01505 -63.0842 -30.3595 3.37553 -27.9607 -82.7176 -0.86467 79.5898 -11.2155 -3.76675 -54.3101 46.1635 -18.8132 -102.836 3.18811 -0.535685 -13.5171 35.7843 12.2666 -13.537 -27.0449 14.555 15.157 
165.48 96.1698 157.415 -88.5412 38.5627 -87.8766 -161.465 -37.7007 106.823 -24.4352 7.44941 -0.306777 60.0214 0.957446 1.27546 27.0533 -1.75678 2.8165 176.371 27.6262 92.9793 -7.43749 -8.58528 -0.37392 67.33 -5.25206 -0.571089 22.0565 -1.3434 4.0897 -3.58484 7.85584 -91.1066 11.1299 -7.64904 -1.46041 -0.518887 -7.70587 -1.12039 -23.2004 -6.85516 -3.70141 -3.18779 -6.85515 -3.70141 99.4754 -3.24449 -92.2829 66.8881 -20.6117 55.9712 -48.6269 -18.2013 -62.6782 -43.4785 1.61939 -18.8576 -83.4406 -4.03911 78.7377 -7.87269 0.944498 -52.7943 48.7706 -19.6044 -100.605 3.56114 -0.597161 -14.0753 31.4719 11.5177 -14.6394 -24.2888 13.8879 16.7362 
155.774 94.0965 147.266 -91.1913 36.4589 -88.7655 -159.142 -35.106 110.627 -42.9473 7.70229 2.07913 61.8036 1.82939 4.74891 24.8972 1.12917 -0.873761 174.954 28.5364 90.3393 -15.085 -12.1648 -0.368967 61.3667 -1.93577 -1.87822 23.6769 1.32086 -1.56023 -3.6016 7.79486 -90.7537 11.2793 -7.51844 -0.755194 -0.369803 -7.54433 -0.421666 -23.0586 -6.94226 -2.99046 -3.04595 -6.94228 -2.99046 100.268 -9.54761 -87.879 58.6813 -17.3575 48.5362 -48.456 -14.7859 -70.5206 -41.3788 1.47634 -18.8249 -84.8682 -10.9555 77.6678 -3.83303 8.13753 -49.4412 45.8694 -20.0317 -99.2425 6.08735 -0.856428 -14.7698 26.549 10.9715 -12.6659 -19.9091 12.6698 16.7201 
146.425 91.1614 137.567 -93.5127 36.1835 -87.1871 -158.859 -29.7013 112.978 -62.9378 5.43208 5.18214 64.3003 3.23285 7.10075 24.2738 2.91227 -3.16268 171.687 34.8705 90.6284 -41.2279 -16.8818 1.99781 62.8371 -1.62591 -4.75387 11.6224 0.36663 2.28559 -3.44706 7.85777 -90.8396 11.1435 -7.25096 -0.962405 -0.507265 -7.28623 -0.640655 -23.1815 -6.62516 -3.10622 -3.16887 -6.62518 -3.10623 98.7734 -20.2589 -90.2149 44.6235 -10.4664 38.1229 -49.2573 -13.5032 -75.3348 -42.1297 1.19208 -17.9662 -86.9818 -25.0039 77.5755 1.01633 15.8027 -41.1232 42.8309 -21.9564 -99.5087 5.76708 -0.854294 -15.0967 23.2112 12.2249 -6.14075 -14.728 12.4724 12.9273 
